<?xml version="1.0" standalone="no"?>
<!DOCTYPE svg PUBLIC "-//W3C//DTD SVG 20010904//EN"
 "http://www.w3.org/TR/2001/REC-SVG-20010904/DTD/svg10.dtd">
<svg version="1.0" xmlns="http://www.w3.org/2000/svg"
 width="794.000000pt" height="794.000000pt" viewBox="0 0 794.000000 794.000000"
 preserveAspectRatio="xMidYMid meet">
<metadata>
Created by potrace 1.14, written by Peter Selinger 2001-2017
</metadata>
<g transform="translate(0.000000,794.000000) scale(0.100000,-0.100000)"
fill="#000000" stroke="none">
<path d="M1847 5244 c-54 -13 -122 -35 -150 -48 -28 -14 -54 -23 -59 -20 -4 3
-8 0 -8 -6 0 -6 -4 -8 -10 -5 -5 3 -10 1 -10 -5 0 -7 -7 -9 -16 -6 -10 4 -13
2 -8 -6 5 -8 2 -9 -10 -5 -9 4 -15 3 -12 -1 7 -12 -103 -64 -116 -56 -7 5 -8
2 -3 -6 6 -10 4 -12 -9 -7 -10 4 -15 3 -11 -3 3 -5 -3 -14 -14 -19 -25 -14
-34 -14 -25 0 4 8 0 8 -15 0 -24 -13 -28 -23 -6 -15 30 12 14 -5 -29 -30 -50
-29 -61 -32 -50 -13 4 7 3 9 -2 4 -5 -5 -9 -13 -9 -17 0 -13 -157 -120 -167
-114 -5 3 -7 1 -6 -5 5 -15 -62 -60 -80 -54 -13 4 -14 3 -3 -5 10 -8 9 -13
-10 -25 -12 -9 -27 -13 -33 -10 -6 3 -8 2 -3 -2 4 -5 -3 -19 -15 -32 -22 -24
-45 -32 -32 -11 5 7 3 8 -5 4 -7 -5 -10 -11 -6 -14 6 -7 -65 -82 -78 -82 -5 0
-4 7 3 15 7 9 11 17 9 19 -2 2 -13 -8 -23 -22 -11 -14 -14 -22 -8 -18 7 4 12
5 12 3 0 -9 -175 -182 -183 -179 -5 1 -6 -2 -3 -6 7 -12 -28 -44 -38 -35 -4 5
-6 1 -4 -7 2 -8 -2 -14 -9 -15 -6 0 -15 -4 -20 -9 -5 -5 -3 -6 5 -2 25 14 11
-10 -32 -56 -24 -26 -42 -49 -38 -52 3 -3 -3 -6 -13 -6 -10 0 -16 -3 -12 -6 5
-6 -36 -70 -54 -84 -12 -9 -97 -195 -103 -225 -5 -22 -4 -26 4 -15 5 8 10 23
10 33 0 9 4 17 9 17 4 0 1 -25 -7 -55 -9 -34 -19 -52 -26 -48 -6 4 -5 -1 3
-10 7 -9 9 -17 4 -17 -13 0 -12 -33 1 -42 8 -5 7 -8 -1 -8 -35 0 16 -119 71
-168 142 -125 380 -126 666 -4 83 35 312 150 397 198 23 13 51 37 63 53 l20
30 -23 27 c-25 29 -64 37 -85 17 -8 -7 -18 -11 -23 -8 -5 4 -9 1 -9 -6 0 -7
-3 -10 -6 -6 -3 3 -14 -2 -25 -11 -11 -9 -23 -17 -27 -16 -4 0 -12 -4 -19 -10
-33 -29 -41 -34 -47 -29 -3 4 -6 1 -6 -5 0 -6 -7 -9 -17 -5 -9 4 -14 2 -10 -3
3 -6 -3 -16 -15 -23 -16 -10 -19 -10 -13 1 5 7 -2 3 -14 -9 -24 -25 -39 -31
-25 -10 5 7 2 5 -7 -5 -9 -9 -19 -14 -23 -11 -3 4 -6 0 -6 -7 0 -7 -3 -10 -7
-7 -3 4 -11 0 -18 -9 -6 -9 -23 -17 -37 -17 -14 -1 -24 -5 -22 -9 6 -10 -34
-20 -47 -12 -8 5 -9 3 -4 -6 6 -10 4 -12 -8 -7 -10 3 -17 3 -17 -2 0 -5 -17
-12 -37 -16 -21 -4 -42 -10 -48 -14 -32 -25 -242 -59 -336 -55 -68 3 -117 26
-137 65 -33 61 20 260 101 379 96 142 182 245 324 390 281 285 550 479 853
614 112 49 287 89 392 88 141 -1 228 -72 245 -199 3 -27 10 -53 15 -60 5 -6 5
-14 0 -17 -4 -2 -9 -26 -9 -53 l-1 -48 8 40 c7 39 7 39 9 7 0 -18 -5 -43 -13
-55 -8 -12 -16 -44 -19 -72 -4 -34 -3 -42 3 -25 6 20 8 21 8 5 1 -26 -16 -67
-18 -45 -1 10 -4 9 -10 -5 -12 -27 -12 -43 0 -25 19 29 11 -13 -19 -101 -34
-99 -62 -160 -71 -154 -4 2 -17 -19 -30 -48 -56 -124 -96 -210 -156 -334 l-63
-131 -228 -229 c-519 -518 -626 -717 -438 -808 27 -13 70 -27 93 -31 l44 -7
-5 -41 c-7 -55 -25 -99 -37 -91 -5 3 -8 0 -5 -7 3 -7 0 -26 -5 -43 l-10 -30 5
35 c4 34 4 35 -9 10 -21 -37 -22 -61 -6 -97 13 -29 19 -33 56 -33 l40 0 19 63
c22 75 80 215 100 241 13 17 142 51 275 72 19 3 43 7 52 10 9 3 25 7 35 9 10
2 97 20 193 40 96 21 184 39 194 41 11 2 63 12 115 23 99 21 108 22 226 40
266 39 605 48 702 18 116 -35 57 51 -64 95 -94 34 -312 31 -603 -8 -75 -10
-103 -13 -155 -19 -60 -7 -101 -14 -135 -20 -14 -3 -34 -7 -45 -9 -51 -10
-232 -47 -250 -50 -180 -38 -221 -47 -243 -51 -50 -9 -163 -32 -206 -41 -26
-6 -28 -5 -21 17 7 27 277 571 286 579 3 3 25 43 48 90 24 47 53 97 64 112 32
39 356 311 587 491 91 72 447 326 691 495 299 206 409 292 409 315 0 7 -13 27
-29 45 -46 52 -126 46 -116 -9 2 -11 -2 -18 -8 -16 -7 1 -11 -4 -9 -11 1 -8
-1 -11 -6 -8 -12 7 -84 -43 -77 -53 2 -5 -3 -8 -13 -7 -9 0 -16 -5 -14 -12 1
-8 -2 -11 -8 -7 -10 6 -116 -65 -132 -89 -4 -6 -8 -7 -8 -3 0 4 -12 -4 -27
-18 -15 -14 -34 -25 -41 -25 -7 0 -10 -4 -7 -10 3 -5 -1 -10 -9 -10 -9 0 -16
-5 -16 -11 0 -5 -4 -8 -9 -4 -5 3 -16 -4 -24 -15 -7 -11 -17 -17 -20 -13 -4 3
-7 1 -7 -5 0 -6 -9 -14 -20 -17 -11 -3 -26 -12 -32 -18 -19 -18 -117 -87 -124
-87 -3 0 -11 -6 -18 -12 -8 -7 -24 -20 -36 -28 -31 -21 -153 -107 -165 -117
-5 -5 -26 -20 -45 -33 -45 -31 -44 -31 -112 -85 -32 -25 -62 -45 -67 -45 -6 0
-16 -9 -24 -20 -8 -11 -17 -17 -20 -13 -4 3 -7 1 -7 -5 0 -7 -7 -12 -16 -12
-8 0 -12 -4 -9 -10 3 -5 1 -10 -6 -10 -6 0 -18 -8 -26 -17 -9 -11 -12 -12 -7
-3 4 8 -6 2 -23 -15 -41 -40 -73 -66 -73 -58 0 3 -8 -3 -17 -13 -30 -32 -94
-76 -101 -69 -4 3 10 39 30 78 73 144 152 364 183 512 89 425 -169 687 -578
589z m510 -316 c-3 -7 -5 -2 -5 12 0 14 2 19 5 13 2 -7 2 -19 0 -25z m-10
-180 c-3 -8 -6 -5 -6 6 -1 11 2 17 5 13 3 -3 4 -12 1 -19z m-590 -1305 c-3 -5
-19 -39 -36 -78 -17 -38 -39 -83 -48 -100 -40 -74 -101 -195 -106 -212 -3 -10
-17 -45 -31 -77 -14 -33 -22 -64 -19 -70 3 -6 3 -8 -2 -4 -4 4 -15 3 -25 -2
-28 -15 -170 -23 -170 -10 0 24 53 117 107 189 96 128 367 426 330 364z"/>
<path d="M1520 5130 c-9 -6 -10 -10 -3 -10 6 0 15 5 18 10 8 12 4 12 -15 0z"/>
<path d="M2263 4505 c-3 -9 -3 -18 -1 -21 3 -3 8 4 11 16 6 23 -1 27 -10 5z"/>
<path d="M2226 4405 c-9 -26 -7 -32 5 -12 6 10 9 21 6 23 -2 3 -7 -2 -11 -11z"/>
<path d="M7167 4018 c-8 -13 -40 -68 -72 -123 -154 -266 -345 -508 -438 -556
-34 -18 -38 -18 -44 -3 -6 16 3 197 12 244 3 14 8 63 11 110 5 74 4 88 -12
105 -30 32 -91 75 -107 75 -27 0 -75 -56 -242 -280 -93 -124 -172 -229 -178
-235 -12 -13 -4 16 43 147 67 184 86 218 107 186 10 -17 20 30 22 102 1 53 -1
56 -28 67 -19 7 -30 19 -33 34 -1 13 -10 25 -19 27 -11 2 -32 -30 -73 -113
-32 -63 -63 -115 -70 -115 -7 0 -64 -51 -127 -112 -179 -177 -329 -280 -448
-311 -71 -18 -99 -12 -103 22 -4 33 16 165 32 209 14 36 21 39 55 16 100 -66
220 23 270 200 20 70 15 136 -14 194 -78 153 -212 84 -341 -176 -41 -82 -84
-202 -96 -267 -20 -101 7 -203 68 -264 94 -95 228 -74 435 67 56 39 75 53 138
111 51 46 52 45 37 -27 -24 -118 -4 -195 61 -232 29 -16 84 -3 79 19 -1 7 2
10 7 7 14 -9 88 76 249 292 84 111 153 202 155 202 1 0 2 -64 2 -142 0 -137 1
-146 28 -198 34 -68 70 -97 128 -103 107 -11 214 88 408 383 l96 145 5 -160
c5 -148 8 -164 32 -210 45 -87 122 -144 194 -145 97 0 208 83 269 204 40 80
58 169 34 165 -29 -3 -39 2 -39 20 0 22 -40 55 -51 43 -3 -4 -13 -28 -22 -54
-43 -129 -173 -258 -261 -258 -21 0 -27 7 -36 40 -11 40 -14 204 -6 265 7 51
19 197 21 260 2 59 1 60 -44 102 -52 48 -75 53 -94 21z m-1547 -226 c-26 -81
-101 -182 -136 -182 -20 0 -6 26 22 40 20 11 23 19 19 44 -5 26 3 42 47 101
55 73 71 72 48 -3z"/>
<path d="M3860 3969 c-103 -63 -238 -308 -275 -500 -36 -192 68 -341 227 -325
65 7 148 41 230 95 78 51 182 132 211 164 9 11 19 18 21 16 2 -2 -2 -37 -10
-78 -23 -119 -25 -140 -30 -259 -3 -95 -1 -121 16 -164 25 -65 46 -87 93 -95
34 -5 40 -2 77 37 47 50 132 219 220 440 76 190 125 296 140 305 6 4 28 -9 50
-29 80 -72 155 -88 250 -53 93 34 156 80 184 135 22 43 15 62 -46 117 -56 50
-64 53 -72 27 -8 -24 -73 -90 -116 -117 -19 -12 -60 -28 -89 -35 -54 -13 -55
-12 -70 11 -53 81 -119 127 -165 115 -35 -9 -59 -53 -193 -355 -64 -146 -118
-260 -120 -254 -5 15 22 141 54 256 23 80 31 97 45 94 31 -9 45 26 60 148 18
138 15 148 -52 209 -52 47 -55 44 -101 -82 -20 -56 -42 -98 -53 -104 -10 -6
-44 -37 -75 -71 -184 -198 -404 -346 -536 -360 -43 -5 -58 10 -57 60 1 67 35
213 49 213 4 0 27 -10 51 -22 41 -19 50 -20 91 -9 56 15 100 61 142 147 42 89
49 172 19 242 -26 61 -70 102 -108 102 -15 0 -43 -10 -62 -21z m50 -224 c-34
-70 -88 -135 -114 -135 -22 0 -9 25 20 39 20 9 23 16 19 42 -5 26 3 42 47 102
49 66 53 70 56 45 2 -16 -10 -56 -28 -93z"/>
<path d="M1090 3780 c-9 -6 -10 -10 -3 -10 6 0 15 5 18 10 8 12 4 12 -15 0z"/>
</g>
</svg>
